# Made in Blockbench 5.1.4
mtllib normal cup.mtl

o plane
v 0.0625 0 0.0625
v 0.0625 0 -0.0625
v -0.0625 0 0.0625
v -0.0625 0 -0.0625
vt 0.125 0.5
vt 0.125 0.625
vt 0 0.625
vt 0 0.5
vn 0 1 0
usemtl m_d275e49a-93af-203f-f5cc-e73c2fd96dc5
f 1/1/1 2/2/1 4/3/1 3/4/1
o plane
v 0.0625 0.1875 0.0625
v 0.0625 0.1875 -0.0625
v -0.0625 0.1875 0.0625
v -0.0625 0.1875 -0.0625
vt 0.3125 0.5
vt 0.3125 0.625
vt 0.1875 0.625
vt 0.1875 0.5
vn 0 1 0
usemtl m_d275e49a-93af-203f-f5cc-e73c2fd96dc5
f 5/5/2 6/6/2 8/7/2 7/8/2
o plane
v -0.062499999999999986 0.1796875 0.0625
v -0.062499999999999986 0.1796875 -0.0625
v -0.06250000000000001 0.3203125 0.0625
v -0.06250000000000001 0.3203125 -0.0625
vt 0.140625 0.875
vt 0.140625 1
vt 0 1
vt 0 0.875
vn 1 2.220446049250313e-16 0
usemtl m_d275e49a-93af-203f-f5cc-e73c2fd96dc5
f 9/9/3 10/10/3 12/11/3 11/12/3
o plane
v 0.06250000000000001 0.1796875 0.0625
v 0.06250000000000001 0.1796875 -0.0625
v 0.062499999999999986 0.3203125 0.0625
v 0.062499999999999986 0.3203125 -0.0625
vt 0.140625 0.6875
vt 0.140625 0.8125
vt 0 0.8125
vt 0 0.6875
vn 1 2.220446049250313e-16 0
usemtl m_d275e49a-93af-203f-f5cc-e73c2fd96dc5
f 13/13/4 14/14/4 16/15/4 15/16/4
o plane
v 6.245004513516506e-17 0 0.015625
v 6.245004513516506e-17 0 -0.015625
v 2.0816681711721685e-17 0.1875 0.015625
v 2.0816681711721685e-17 0.1875 -0.015625
vt 0.6875 0.9375
vt 0.6875 1
vt 0.5 1
vt 0.5 0.9375
vn 1 2.220446049250313e-16 0
usemtl m_d275e49a-93af-203f-f5cc-e73c2fd96dc5
f 17/17/5 18/18/5 20/19/5 19/20/5
o plane
v 0.0625 0.3125 0.0625
v 0.0625 0.3125 -0.0625
v -0.0625 0.3125 0.0625
v -0.0625 0.3125 -0.0625
vt 0.5 0.5
vt 0.5 0.625
vt 0.375 0.625
vt 0.375 0.5
vn 0 1 0
usemtl m_d275e49a-93af-203f-f5cc-e73c2fd96dc5
f 21/21/6 22/22/6 24/23/6 23/24/6
o plane
v -0.062499999999999986 0.1796875 -0.062499999999999986
v 0.06250000000000001 0.1796875 -0.062499999999999986
v -0.06250000000000001 0.3203125 -0.06250000000000001
v 0.062499999999999986 0.3203125 -0.06250000000000001
vt 0.140625 0.875
vt 0.140625 1
vt 0 1
vt 0 0.875
vn -4.930380657631324e-32 2.220446049250313e-16 1
usemtl m_d275e49a-93af-203f-f5cc-e73c2fd96dc5
f 25/25/7 26/26/7 28/27/7 27/28/7
o plane
v 0.062499999999999986 0.1796875 0.06250000000000001
v -0.06250000000000001 0.1796875 0.06250000000000001
v 0.06250000000000001 0.3203125 0.062499999999999986
v -0.062499999999999986 0.3203125 0.062499999999999986
vt 0 1
vt 0.140625 1
vt 0.140625 0.875
vt 0 0.875
vn 4.930380657631324e-32 2.220446049250313e-16 1
usemtl m_d275e49a-93af-203f-f5cc-e73c2fd96dc5
f 32/29/8 30/30/8 29/31/8 31/32/8
o hoja
v 0.0307752422816315 0.31644849444790846 0.015625
v 0.0307752422816315 0.31644849444790846 -0.015625
v -0.0307752422816315 0.3273015055520916 0.015625
v -0.0307752422816315 0.3273015055520916 -0.015625
vt 0.5625 0.84375
vt 0.5625 0.875
vt 0.5 0.875
vt 0.5 0.84375
vn 0.17364817766693033 0.984807753012208 0
usemtl m_d275e49a-93af-203f-f5cc-e73c2fd96dc5
f 33/33/9 34/34/9 36/35/9 35/36/9